<?xml version="1.0" standalone="no"?>
<!DOCTYPE svg PUBLIC "-//W3C//DTD SVG 1.1//EN" "http://www.w3.org/Graphics/SVG/1.1/DTD/svg11.dtd" >
<svg xmlns="http://www.w3.org/2000/svg">
<metadata>Generated by IcoMoon</metadata>
<defs>
<font id="icomoon" horiz-adv-x="1024">
<font-face units-per-em="1024" ascent="960" descent="-64" />
<missing-glyph horiz-adv-x="1024" />
<glyph unicode="&#x20;" horiz-adv-x="512" d="" />
<glyph unicode="&#xe900;" glyph-name="chat" d="M288 38.4h-19.2l-19.2 25.6v108.8c-44.8 6.4-83.2 32-121.6 64-38.4 44.8-64 96-64 160v236.8c0 57.6 19.2 115.2 64 160 38.4 44.8 96 64 153.6 70.4h454.4c57.6 0 115.2-25.6 160-70.4 38.4-44.8 64-96 64-160v-243.2c0-121.6-96-224-217.6-224h-281.6l-160-128h-12.8zM281.6 780.8c-38.4 0-70.4-12.8-102.4-38.4-25.6-25.6-44.8-64-38.4-102.4v-249.6c0-83.2 64-147.2 147.2-147.2h38.4v-89.6l115.2 89.6h307.2c83.2 0 147.2 70.4 140.8 147.2v243.2c0 38.4-12.8 76.8-38.4 102.4s-64 44.8-102.4 44.8h-467.2zM377.6 492.8c0-25.6-25.6-44.8-44.8-44.8-25.6 0-51.2 19.2-51.2 44.8s19.2 44.8 44.8 44.8c25.6 0 51.2-19.2 51.2-44.8zM556.8 492.8c0-25.6-19.2-44.8-44.8-44.8s-44.8 19.2-44.8 44.8c0 25.6 19.2 44.8 44.8 44.8s44.8-19.2 44.8-44.8zM742.4 492.8c0-25.6-19.2-44.8-44.8-44.8s-44.8 19.2-44.8 44.8c0 25.6 19.2 44.8 44.8 44.8s44.8-19.2 44.8-44.8z" />
<glyph unicode="&#xe901;" glyph-name="arrow-back" d="M960 505.6h-678.4l313.6 313.6-83.2 76.8-448-448 448-448 76.8 76.8-307.2 313.6h678.4v115.2z" />
<glyph unicode="&#xe902;" glyph-name="attach" d="M691.2 691.2v-467.2c0-44.8-19.2-83.2-44.8-115.2-32-32-70.4-44.8-115.2-44.8s-83.2 19.2-115.2 44.8-44.8 70.4-44.8 115.2v512c0 25.6 12.8 51.2 32 70.4s38.4 25.6 64 25.6c25.6 0 51.2-12.8 70.4-32s32-44.8 32-70.4v-428.8c0-12.8-6.4-19.2-12.8-25.6s-19.2-12.8-25.6-12.8c-12.8 0-19.2 6.4-25.6 12.8s-12.8 19.2-12.8 25.6v384h-64v-384c0-25.6 12.8-51.2 32-70.4s44.8-32 70.4-32 51.2 12.8 70.4 32c19.2 19.2 32 44.8 32 70.4v435.2c0 44.8-19.2 83.2-44.8 115.2-32 25.6-76.8 44.8-121.6 44.8-38.4 0-83.2-19.2-115.2-44.8-25.6-32-44.8-76.8-44.8-115.2v-512c0-57.6 25.6-115.2 64-160 44.8-44.8 96-64 160-64 57.6 0 115.2 25.6 160 64 44.8 44.8 64 96 64 160v467.2h-64z" />
<glyph unicode="&#xe903;" glyph-name="call" d="M76.8 448c-12.8-38.4-19.2-76.8-6.4-115.2 0-12.8 6.4-25.6 19.2-32 6.4-6.4 19.2-19.2 32-19.2 12.8-6.4 25.6-6.4 38.4-6.4 38.4 0 83.2 6.4 121.6 19.2 12.8 6.4 19.2 12.8 25.6 19.2 12.8 6.4 19.2 19.2 19.2 25.6l12.8 83.2c0 0 0 6.4 0 6.4s6.4 6.4 6.4 6.4c57.6 25.6 108.8 38.4 166.4 38.4s108.8-12.8 160-32c0 0 6.4 0 6.4-6.4 0 0 0-6.4 0-6.4l12.8-83.2c0-12.8 6.4-19.2 12.8-32 6.4-6.4 19.2-12.8 25.6-19.2 38.4-12.8 83.2-19.2 121.6-19.2 12.8 0 25.6 0 38.4 6.4s25.6 12.8 32 19.2c6.4 6.4 12.8 19.2 19.2 32 25.6 38.4 19.2 76.8 6.4 115.2-57.6 108.8-236.8 172.8-435.2 172.8s-377.6-64-435.2-172.8v0z" />
<glyph unicode="&#xe904;" glyph-name="call-duration" d="M512 518.4c-25.6 0-51.2-6.4-70.4-19.2-19.2-19.2-38.4-38.4-44.8-57.6-12.8-25.6-12.8-51.2-12.8-76.8 6.4-25.6 19.2-44.8 32-64 19.2-19.2 38.4-32 64-32 25.6-6.4 51.2 0 76.8 6.4 25.6 12.8 44.8 25.6 57.6 44.8 19.2 19.2 25.6 44.8 25.6 70.4 0 32-12.8 64-38.4 89.6s-57.6 38.4-89.6 38.4zM512 288c-19.2 0-38.4 6.4-57.6 19.2s-32 25.6-38.4 44.8c-6.4 19.2-6.4 38.4-6.4 57.6 6.4 19.2 12.8 38.4 32 51.2 12.8 12.8 32 25.6 51.2 25.6 19.2 6.4 38.4 0 57.6-6.4s38.4-19.2 44.8-32c12.8-19.2 19.2-38.4 19.2-57.6 0-25.6-12.8-51.2-32-70.4s-44.8-32-70.4-32zM518.4 454.4h-19.2v-76.8l64-38.4 12.8 12.8-57.6 32v70.4zM755.2 531.2c38.4-12.8 76.8-32 108.8-57.6l-38.4-32c-25.6 12.8-44.8 25.6-70.4 38.4v51.2zM262.4 531.2v-51.2c-19.2-12.8-44.8-25.6-64-38.4l-44.8 32c38.4 25.6 76.8 44.8 108.8 57.6zM512 633.6c-153.6 0-307.2-44.8-435.2-140.8-6.4 0-6.4 0-12.8-6.4 0-6.4 0-6.4 0-12.8s0-6.4 0-12.8 6.4-6.4 6.4-6.4l96-70.4c6.4-6.4 19.2-12.8 25.6-12.8s19.2 0 25.6 6.4c32 25.6 64 38.4 102.4 57.6 6.4 0 12.8 6.4 12.8 12.8 6.4 0 6.4 6.4 6.4 12.8v96c57.6 12.8 115.2 19.2 172.8 19.2s115.2-6.4 172.8-19.2v-89.6c0-6.4 0-12.8 6.4-19.2s6.4-6.4 12.8-12.8c38.4-12.8 70.4-32 102.4-57.6 6.4-6.4 19.2-6.4 25.6-6.4s19.2 0 25.6 6.4l89.6 70.4c6.4 0 6.4 6.4 6.4 6.4 0 6.4 0 6.4 0 12.8s0 6.4 0 12.8-6.4 6.4-6.4 6.4c-128 102.4-281.6 147.2-435.2 147.2z" />
<glyph unicode="&#xe905;" glyph-name="call-out" d="M755.2 473.6c38.4-12.8 76.8-32 108.8-57.6l-38.4-32c-25.6 12.8-44.8 25.6-70.4 38.4v51.2zM262.4 473.6v-51.2c-19.2-6.4-44.8-19.2-64-32l-44.8 32c38.4 19.2 76.8 38.4 108.8 51.2zM512 576c-153.6 0-307.2-44.8-435.2-134.4-6.4 0-6.4-6.4-12.8-12.8 0-6.4 0-6.4 0-12.8s0-6.4 0-12.8 6.4-6.4 6.4-6.4l89.6-70.4c12.8-6.4 25.6-6.4 32-6.4s19.2 0 25.6 6.4c32 25.6 64 44.8 102.4 57.6 6.4 0 12.8 0 12.8 6.4s6.4 12.8 6.4 19.2v89.6c57.6 12.8 115.2 19.2 172.8 19.2s115.2-6.4 172.8-19.2v-89.6c0-6.4 0-12.8 6.4-19.2s6.4-6.4 12.8-6.4c38.4-12.8 70.4-32 102.4-51.2 6.4-12.8 12.8-12.8 25.6-12.8 6.4 0 19.2 0 25.6 6.4l89.6 70.4c6.4 0 6.4 6.4 6.4 6.4 0 6.4 0 6.4 0 12.8s0 6.4 0 12.8-6.4 6.4-6.4 6.4c-128 96-281.6 140.8-435.2 140.8z" />
<glyph unicode="&#xe906;" glyph-name="call-up" d="M844.8 12.8c44.8 19.2 83.2 51.2 102.4 96 6.4 12.8 12.8 32 12.8 44.8 0 19.2-6.4 32-12.8 44.8s-19.2 25.6-32 38.4c-38.4 38.4-76.8 64-121.6 89.6-12.8 6.4-25.6 6.4-38.4 6.4s-25.6-6.4-38.4-12.8l-89.6-64c0 0-6.4 0-6.4-6.4-6.4 0-6.4 0-12.8 0-64 25.6-121.6 64-172.8 115.2-51.2 57.6-89.6 115.2-108.8 179.2 0 0 0 6.4 0 12.8s0 6.4 6.4 6.4l64 89.6c6.4 12.8 12.8 25.6 12.8 38.4s0 25.6-6.4 38.4c-32 44.8-64 89.6-96 121.6-12.8 12.8-32 25.6-44.8 32s-32 12.8-44.8 12.8c-19.2 0-32-6.4-44.8-12.8-44.8-25.6-76.8-57.6-96-102.4-51.2-153.6 51.2-364.8 230.4-537.6 172.8-179.2 384-281.6 537.6-230.4v0z" />
<glyph unicode="&#xe907;" glyph-name="camera-switch" d="M870.4 761.6h-140.8l-83.2 89.6h-268.8l-83.2-89.6h-140.8c-25.6 0-44.8-6.4-64-25.6s-25.6-38.4-25.6-64v-537.6c0-25.6 6.4-44.8 25.6-64s38.4-25.6 64-25.6h716.8c25.6 0 44.8 6.4 64 25.6s25.6 38.4 25.6 64v537.6c0 25.6-6.4 44.8-25.6 64s-38.4 25.6-64 25.6zM870.4 134.4h-716.8v537.6h179.2l25.6 32 57.6 57.6h192l57.6-57.6 25.6-32h179.2v-537.6zM512 224c-25.6 0-44.8 6.4-70.4 12.8-19.2 6.4-38.4 19.2-57.6 38.4s-32 38.4-38.4 57.6c-6.4 25.6-12.8 44.8-12.8 70.4h89.6l-108.8 108.8-115.2-108.8h89.6c0-38.4 6.4-76.8 25.6-108.8s44.8-64 76.8-83.2c32-19.2 70.4-32 108.8-32s76.8 6.4 108.8 25.6l-32 32c-12.8-6.4-38.4-12.8-64-12.8zM512 627.2c-38.4 0-70.4-12.8-108.8-25.6l32-32c25.6 6.4 51.2 12.8 76.8 12.8s44.8-6.4 70.4-12.8c19.2-12.8 38.4-25.6 57.6-38.4 19.2-19.2 32-38.4 38.4-57.6s12.8-44.8 12.8-70.4h-89.6l115.2-115.2 115.2 115.2h-89.6c0 57.6-25.6 115.2-64 160-51.2 38.4-108.8 64-166.4 64z" />
<glyph unicode="&#xe908;" glyph-name="cross" d="M153.6 19.2c-19.2-19.2-51.2-19.2-70.4 0v0c-19.2 19.2-19.2 51.2 0 70.4l358.4 358.4-358.4 358.4c-19.2 19.2-19.2 51.2 0 70.4v0c19.2 19.2 51.2 19.2 70.4 0l358.4-358.4 358.4 358.4c19.2 19.2 51.2 19.2 70.4 0v0c19.2-19.2 19.2-51.2 0-70.4l-358.4-358.4 358.4-358.4c19.2-19.2 19.2-51.2 0-70.4v0c-19.2-19.2-51.2-19.2-70.4 0l-358.4 358.4-358.4-358.4z" />
<glyph unicode="&#xe909;" glyph-name="done" d="M83.2 492.8c12.8 12.8 25.6 19.2 44.8 19.2s32-6.4 44.8-19.2l256-256c6.4-6.4 12.8-12.8 12.8-19.2 6.4-6.4 6.4-19.2 6.4-25.6s0-19.2-6.4-25.6c-6.4-6.4-6.4-12.8-12.8-19.2s-12.8-12.8-19.2-12.8c-6.4-6.4-19.2-6.4-25.6-6.4s-19.2 0-25.6 6.4c-6.4 6.4-12.8 6.4-19.2 12.8l-256 256c-12.8 12.8-19.2 25.6-19.2 44.8s6.4 32 19.2 44.8zM940.8 748.8c12.8-12.8 19.2-25.6 19.2-44.8s-6.4-32-19.2-44.8l-512-512c-12.8-12.8-25.6-12.8-44.8-12.8s-32 6.4-44.8 19.2c-12.8 12.8-19.2 25.6-19.2 44.8s6.4 32 12.8 44.8l512 512c19.2 6.4 32 12.8 51.2 12.8s32-6.4 44.8-19.2z" />
<glyph unicode="&#xe90a;" glyph-name="done-double" d="M531.2 524.8c6.4 6.4 12.8 12.8 12.8 25.6 0 6.4-6.4 19.2-12.8 25.6-6.4 0-12.8 6.4-25.6 6.4-6.4 0-12.8-6.4-19.2-12.8l-249.6-249.6-115.2 115.2c-6.4 6.4-12.8 6.4-25.6 6.4-6.4 0-19.2-6.4-25.6-12.8 0 0-6.4-12.8-6.4-19.2s6.4-19.2 12.8-25.6l134.4-134.4c0-6.4 6.4-6.4 12.8-6.4s6.4 0 12.8 0 6.4 0 12.8 0 6.4 6.4 12.8 6.4c0 0 0 0 0 0l268.8 275.2zM960 544c0 6.4-6.4 19.2-12.8 25.6s-12.8 12.8-25.6 12.8c-6.4 0-19.2-6.4-25.6-12.8l-243.2-249.6-115.2 115.2c-6.4 6.4-12.8 6.4-19.2 6.4s-19.2-6.4-25.6-12.8c-6.4 0-12.8-12.8-12.8-19.2s6.4-19.2 12.8-25.6l134.4-134.4c0-6.4 6.4-6.4 12.8-6.4s6.4 0 12.8 0 6.4 0 12.8 0 6.4 6.4 12.8 6.4c0 0 0 0 0 0l268.8 268.8c6.4 12.8 12.8 19.2 12.8 25.6z" />
<glyph unicode="&#xe90b;" glyph-name="expand" d="M512 198.4l-448 422.4 83.2 76.8 364.8-345.6 364.8 345.6 83.2-76.8-448-422.4z" />
<glyph unicode="&#xe90c;" glyph-name="group" d="M601.6 435.2c-38.4 0-76.8 12.8-108.8 38.4s-51.2 64-57.6 102.4c-6.4 38.4 0 76.8 19.2 115.2 19.2 32 51.2 64 83.2 76.8 38.4 12.8 76.8 19.2 115.2 6.4s70.4-38.4 96-70.4c19.2-32 32-70.4 25.6-115.2-6.4-38.4-19.2-76.8-51.2-102.4-12.8-19.2-32-25.6-57.6-38.4-19.2-6.4-38.4-12.8-64-12.8zM601.6 710.4c-25.6 0-44.8-6.4-64-25.6s-32-32-32-57.6c-6.4-19.2-6.4-44.8 6.4-64s32-38.4 51.2-51.2c25.6-6.4 44.8-6.4 70.4 0s44.8 19.2 57.6 38.4c12.8 19.2 19.2 44.8 12.8 70.4 0 25.6-12.8 44.8-32 64-6.4 12.8-19.2 19.2-32 25.6-6.4 0-25.6 0-38.4 0zM928 115.2c-6.4 0-19.2 6.4-25.6 12.8s-12.8 12.8-12.8 25.6c0 89.6-51.2 147.2-288 147.2s-288-57.6-288-147.2c0-6.4-6.4-19.2-12.8-25.6s-12.8-12.8-25.6-12.8-12.8 6.4-19.2 12.8c-6.4 6.4-12.8 12.8-12.8 25.6 0 217.6 249.6 217.6 358.4 217.6s358.4 0 358.4-217.6c0-6.4-6.4-19.2-12.8-25.6s-12.8-12.8-19.2-12.8zM345.6 396.8h-19.2c-19.2 0-38.4 6.4-51.2 12.8-12.8 12.8-32 25.6-38.4 38.4-12.8 12.8-25.6 32-25.6 51.2-6.4 12.8-12.8 32-6.4 51.2 0 19.2 6.4 38.4 12.8 51.2 12.8 19.2 19.2 32 38.4 44.8 12.8 12.8 32 19.2 44.8 25.6 19.2 0 38.4 6.4 51.2 0 6.4 0 6.4 0 12.8-6.4s6.4-6.4 12.8-6.4 6.4-6.4 6.4-6.4 0-6.4 0-12.8 0-12.8 0-19.2-6.4-6.4-12.8-6.4c-6.4 0-6.4-6.4-12.8-6.4s-6.4 0-12.8 0c-19.2 0-38.4-6.4-51.2-12.8-12.8-12.8-19.2-32-19.2-51.2 0-6.4 0-19.2 0-25.6s6.4-19.2 12.8-25.6c6.4-6.4 12.8-12.8 19.2-19.2 12.8 0 19.2 0 25.6-6.4 12.8 0 32 0 44.8 12.8 6.4 0 6.4 6.4 12.8 6.4s6.4 0 12.8 0 6.4 0 12.8-6.4c6.4 0 6.4-6.4 6.4-12.8s6.4-6.4 6.4-12.8c0-6.4 0-6.4 0-12.8s0-6.4-6.4-12.8c0-6.4-6.4-6.4-12.8-6.4-19.2-12.8-38.4-25.6-64-25.6zM96 147.2c-6.4 0-19.2 6.4-25.6 12.8 0 6.4-6.4 12.8-6.4 25.6 0 121.6 32 204.8 198.4 204.8 6.4 0 19.2-6.4 25.6-12.8s12.8-12.8 12.8-25.6c0-6.4-6.4-19.2-12.8-25.6-12.8 0-19.2-6.4-25.6-6.4-108.8 0-128-32-128-140.8 0-6.4-6.4-19.2-12.8-25.6-6.4 0-12.8-6.4-25.6-6.4z" />
<glyph unicode="&#xe90d;" glyph-name="group-add" d="M505.6 460.8c32 38.4 51.2 89.6 51.2 140.8s-19.2 102.4-51.2 140.8c19.2 6.4 44.8 6.4 64 0s44.8-12.8 57.6-25.6c19.2-12.8 32-32 38.4-51.2s12.8-44.8 12.8-64c0-19.2-6.4-44.8-12.8-64s-25.6-38.4-38.4-51.2c-12.8-12.8-32-25.6-57.6-25.6-19.2-6.4-44.8-6.4-64 0zM710.4 153.6v89.6c0 32-6.4 64-25.6 89.6-19.2 32-51.2 57.6-83.2 70.4 76.8-6.4 153.6-25.6 217.6-64 19.2-12.8 32-25.6 44.8-44.8s19.2-38.4 19.2-57.6v-89.6l-172.8 6.4zM812.8 428.8v96h-96v57.6h96v96h57.6v-96h89.6v-57.6h-96v-96h-51.2zM358.4 454.4c-19.2 0-38.4 0-57.6 6.4-12.8 12.8-32 25.6-44.8 38.4-25.6 25.6-38.4 64-38.4 102.4s12.8 76.8 38.4 102.4c12.8 12.8 32 25.6 44.8 32 19.2 6.4 38.4 6.4 57.6 6.4s38.4 0 57.6-6.4c12.8-6.4 32-19.2 44.8-32 25.6-25.6 38.4-64 38.4-102.4s-12.8-76.8-38.4-102.4c-12.8-12.8-32-25.6-51.2-32-12.8-6.4-32-12.8-51.2-12.8v0zM64 153.6v89.6c0 19.2 6.4 44.8 19.2 57.6 6.4 19.2 25.6 32 44.8 38.4 38.4 19.2 76.8 38.4 121.6 44.8 32 12.8 70.4 12.8 108.8 12.8s76.8-6.4 108.8-12.8c44.8-6.4 83.2-25.6 121.6-44.8 19.2-6.4 38.4-25.6 44.8-38.4 12.8-19.2 19.2-38.4 19.2-57.6v-89.6h-588.8zM358.4 512c12.8 0 19.2 0 32 6.4s19.2 12.8 25.6 19.2c12.8 19.2 25.6 38.4 25.6 64s-6.4 44.8-25.6 64c-6.4 6.4-12.8 12.8-25.6 12.8-12.8 6.4-19.2 6.4-32 6.4s-19.2 0-32-6.4c-12.8 0-19.2-6.4-25.6-12.8-12.8-19.2-25.6-38.4-25.6-64s6.4-44.8 25.6-64c6.4-6.4 19.2-12.8 25.6-19.2 6.4 0 19.2-6.4 32-6.4zM121.6 211.2h473.6v32c0 12.8 0 19.2-6.4 25.6s-12.8 19.2-25.6 19.2c-32 19.2-70.4 32-108.8 44.8-32 6.4-64 12.8-96 12.8s-64-6.4-96-12.8c-38.4-12.8-76.8-25.6-108.8-38.4-6.4-6.4-19.2-12.8-19.2-19.2-6.4-6.4-6.4-19.2-6.4-32l-6.4-32z" />
<glyph unicode="&#xe90e;" glyph-name="is-typing" d="M172.8 300.8c57.6 0 108.8 44.8 108.8 108.8-6.4 57.6-51.2 102.4-108.8 102.4s-108.8-44.8-108.8-108.8c0-57.6 44.8-102.4 108.8-102.4zM512 384c57.6 0 108.8 44.8 108.8 108.8s-51.2 102.4-108.8 102.4-108.8-44.8-108.8-102.4 51.2-108.8 108.8-108.8zM851.2 384c64 0 108.8 44.8 108.8 108.8s-44.8 108.8-108.8 108.8c-57.6 0-108.8-44.8-108.8-108.8s51.2-108.8 108.8-108.8z" />
<glyph unicode="&#xe90f;" glyph-name="mic" d="M512 332.8c38.4 0 70.4 12.8 102.4 38.4 25.6 25.6 38.4 64 38.4 102.4v281.6c0 38.4-12.8 70.4-38.4 102.4-32 25.6-64 38.4-102.4 38.4s-70.4-12.8-102.4-38.4c-25.6-32-38.4-64-38.4-102.4v-281.6c0-38.4 12.8-70.4 38.4-102.4 32-25.6 64-38.4 102.4-38.4zM793.6 473.6c-12.8 0-19.2-6.4-32-12.8-6.4-6.4-12.8-19.2-12.8-25.6-6.4-57.6-38.4-102.4-83.2-140.8s-96-57.6-153.6-57.6c-57.6 0-108.8 19.2-153.6 57.6-38.4 32-70.4 83.2-76.8 134.4 0 12.8-6.4 25.6-19.2 32s-25.6 12.8-38.4 12.8c-12.8-6.4-19.2-12.8-32-19.2-6.4-12.8-6.4-25.6-6.4-38.4 12.8-70.4 44.8-134.4 96-179.2 51.2-51.2 115.2-83.2 185.6-89.6v-96c0-12.8 6.4-25.6 12.8-32s19.2-19.2 32-19.2c12.8 0 25.6 6.4 32 12.8s12.8 19.2 12.8 32v96c70.4 12.8 134.4 44.8 185.6 89.6 51.2 51.2 83.2 115.2 96 179.2 0 6.4 0 12.8 0 19.2-6.4 12.8-6.4 19.2-12.8 25.6s-12.8 6.4-19.2 12.8c0 0-6.4 6.4-12.8 6.4z" />
<glyph unicode="&#xe910;" glyph-name="no-video" d="M902.4 768c6.4 6.4 6.4 6.4 12.8 12.8 0 6.4 6.4 12.8 6.4 19.2s0 12.8-6.4 19.2c0 6.4-6.4 12.8-12.8 12.8-6.4 6.4-19.2 12.8-32 12.8s-25.6-6.4-32-12.8l-716.8-704c-6.4-6.4-6.4-6.4-12.8-12.8 0-6.4-6.4-12.8-6.4-19.2s0-12.8 6.4-19.2c0-6.4 6.4-12.8 12.8-12.8 6.4-6.4 19.2-12.8 32-12.8s25.6 6.4 32 12.8l716.8 704zM556.8 748.8c38.4 0 76.8-12.8 108.8-38.4l-64-64c-12.8 12.8-32 12.8-44.8 12.8h-313.6c-25.6 0-44.8-6.4-64-25.6s-25.6-38.4-25.6-64v-268.8c0-12.8 0-25.6 6.4-38.4s12.8-19.2 19.2-32l-64-64c-19.2 19.2-32 38.4-44.8 57.6 0 32-6.4 51.2-6.4 76.8v268.8c0 44.8 19.2 96 51.2 128s76.8 51.2 128 51.2h313.6zM556.8 236.8c25.6 0 44.8 6.4 70.4 25.6 19.2 19.2 25.6 38.4 25.6 64v140.8l166.4 166.4 64 38.4c6.4 6.4 19.2 6.4 25.6 6.4s19.2 0 25.6-6.4c6.4-6.4 12.8-12.8 19.2-19.2s6.4-19.2 6.4-25.6v-339.2c0-6.4 0-19.2-6.4-25.6s-12.8-12.8-19.2-19.2c-6.4 0-19.2-6.4-25.6-6.4s-19.2 0-25.6 6.4l-147.2 64c-6.4-44.8-25.6-83.2-57.6-115.2-32-25.6-76.8-44.8-121.6-44.8h-230.4l89.6 89.6h140.8zM736 409.6l134.4-57.6v211.2l-134.4-76.8v-76.8z" />
<glyph unicode="&#xe911;" glyph-name="photo" d="M857.6 793.6v-697.6h-691.2v697.6h691.2zM857.6 896h-691.2c-32 0-57.6-12.8-70.4-32-19.2-12.8-32-38.4-32-70.4v-697.6c0-25.6 12.8-51.2 32-70.4 12.8-12.8 38.4-25.6 70.4-25.6h697.6c25.6 0 51.2 12.8 70.4 32s32 44.8 32 70.4v691.2c0 25.6-12.8 51.2-32 70.4s-44.8 32-76.8 32zM620.8 454.4l-147.2-192-108.8 128-147.2-192h595.2l-192 256z" />
<glyph unicode="&#xe912;" glyph-name="search" d="M704 332.8h-38.4l-12.8 12.8c57.6 64 83.2 147.2 76.8 236.8-6.4 83.2-44.8 166.4-108.8 224-57.6 57.6-140.8 89.6-230.4 89.6-83.2 0-166.4-38.4-230.4-96-57.6-64-96-147.2-96-230.4s32-166.4 89.6-230.4c57.6-64 140.8-102.4 224-108.8s172.8 25.6 236.8 76.8l12.8-12.8v-38.4l256-256 76.8 76.8-256 256zM396.8 332.8c-44.8 0-89.6 12.8-128 38.4s-70.4 64-83.2 102.4c-19.2 44.8-25.6 89.6-12.8 134.4 6.4 44.8 32 83.2 64 115.2s70.4 51.2 115.2 64c44.8 6.4 89.6 6.4 134.4-12.8s76.8-44.8 102.4-83.2c25.6-38.4 38.4-83.2 38.4-128 0-32-6.4-57.6-19.2-89.6-6.4-25.6-25.6-51.2-44.8-76.8-25.6-19.2-51.2-38.4-76.8-44.8-25.6-12.8-57.6-19.2-89.6-19.2z" />
<glyph unicode="&#xe913;" glyph-name="send-arrow" d="M115.2 57.6c0 0-6.4 0-6.4 6.4-38.4 19.2-38.4 70.4-38.4 89.6v249.6l179.2 44.8-185.6 44.8v262.4c0 38.4 12.8 57.6 25.6 70.4 12.8 6.4 38.4 19.2 76.8 6.4l748.8-307.2c12.8-6.4 44.8-32 44.8-70.4 0-25.6-19.2-44.8-51.2-57.6l-729.6-320c-25.6-25.6-51.2-25.6-64-19.2zM166.4 326.4v-160l652.8 288-659.2 275.2v-160l268.8-64c12.8 0 57.6-12.8 57.6-57.6 0-32-19.2-44.8-57.6-51.2l-262.4-70.4z" />
<glyph unicode="&#xe914;" glyph-name="speaker" d="M960 448c0 57.6-12.8 108.8-44.8 160s-70.4 83.2-121.6 108.8v-531.2c51.2 25.6 89.6 64 121.6 108.8s44.8 96 44.8 153.6zM64 582.4v-262.4c0-19.2 6.4-32 19.2-44.8 12.8-19.2 32-25.6 44.8-25.6h198.4l217.6-217.6c6.4-6.4 19.2-12.8 32-19.2 12.8 0 25.6 0 38.4 6.4s25.6 12.8 32 25.6c6.4 12.8 12.8 25.6 12.8 38.4v736c0 12.8-6.4 25.6-12.8 38.4-6.4 6.4-12.8 19.2-25.6 25.6-12.8 0-25.6 6.4-38.4 0-12.8 0-25.6-6.4-32-19.2l-224-217.6h-198.4c-12.8 0-32-6.4-44.8-19.2s-19.2-32-19.2-44.8z" />
<glyph unicode="&#xe915;" d="M473.6 332.8l-243.2-243.2c-6.4-6.4-6.4-12.8-12.8-19.2 0-6.4-6.4-12.8-6.4-19.2s0-12.8 6.4-19.2c0-6.4 6.4-12.8 12.8-19.2s12.8-6.4 19.2-12.8c6.4 0 12.8 0 19.2 0s12.8 0 19.2 6.4c6.4 0 12.8 6.4 19.2 12.8l204.8 204.8 204.8-204.8c6.4-6.4 12.8-6.4 19.2-12.8 6.4 0 12.8-6.4 19.2-6.4s12.8 0 19.2 6.4c6.4 0 12.8 6.4 19.2 12.8s6.4 12.8 12.8 19.2c0 6.4 6.4 12.8 6.4 19.2s0 12.8-6.4 19.2c0 6.4-6.4 12.8-12.8 19.2l-243.2 236.8c-6.4 6.4-12.8 12.8-19.2 12.8s-12.8 6.4-19.2 6.4c-6.4 0-12.8 0-19.2-6.4-6.4 0-12.8-6.4-19.2-12.8z" />
<glyph unicode="&#xe916;" d="M473.6 608l-243.2-243.2c0-6.4-6.4-12.8-12.8-19.2 0-6.4-6.4-12.8-6.4-19.2s0-12.8 6.4-19.2c0-6.4 6.4-12.8 12.8-19.2s12.8-6.4 19.2-12.8c6.4 0 12.8-6.4 19.2-6.4s12.8 0 19.2 6.4c6.4 0 12.8 6.4 19.2 12.8l204.8 204.8 204.8-204.8c6.4-6.4 12.8-6.4 19.2-12.8 6.4 0 12.8-6.4 19.2-6.4s12.8 0 19.2 6.4c6.4 0 12.8 6.4 19.2 12.8s6.4 12.8 12.8 19.2c0 6.4 6.4 12.8 6.4 19.2s0 12.8-6.4 19.2c0 6.4-6.4 12.8-12.8 19.2l-243.2 243.2c-6.4 6.4-12.8 6.4-19.2 12.8-6.4 0-12.8 0-19.2 0s-12.8 0-19.2-6.4c-6.4 0-12.8 0-19.2-6.4z" />
<glyph unicode="&#xe917;" d="M473.6 876.8l-243.2-236.8c0-6.4-6.4-12.8-12.8-19.2 0-6.4-6.4-12.8-6.4-19.2s0-12.8 6.4-19.2c0-6.4 6.4-12.8 12.8-19.2s12.8-6.4 19.2-12.8c6.4 0 12.8-6.4 19.2-6.4s12.8 0 19.2 6.4c6.4 0 12.8 6.4 19.2 12.8l204.8 204.8 204.8-204.8c6.4-6.4 12.8-6.4 19.2-12.8 6.4 0 12.8-6.4 19.2-6.4s12.8 0 19.2 6.4c6.4 0 12.8 6.4 19.2 12.8s6.4 12.8 12.8 19.2c0 6.4 6.4 12.8 6.4 19.2s0 12.8-6.4 19.2c0 6.4-6.4 12.8-12.8 19.2l-243.2 236.8c-6.4 6.4-12.8 12.8-19.2 12.8-6.4 6.4-12.8 6.4-19.2 6.4s-12.8 0-19.2-6.4c-6.4 0-12.8-6.4-19.2-12.8z" />
<glyph unicode="&#xe918;" glyph-name="video" d="M204.8 742.4c-38.4 0-76.8-19.2-102.4-44.8s-38.4-57.6-38.4-96v-307.2c0-38.4 12.8-70.4 38.4-96s64-38.4 96-38.4h345.6c38.4 0 70.4 12.8 96 38.4s38.4 64 38.4 96v307.2c0 19.2-6.4 38.4-12.8 51.2-6.4 19.2-19.2 32-32 44.8 0 12.8-19.2 25.6-32 32-19.2 6.4-38.4 12.8-57.6 12.8h-339.2zM780.8 326.4l128-64c6.4 0 12.8-6.4 19.2-6.4s12.8 0 19.2 6.4c6.4 0 6.4 6.4 12.8 12.8 0 6.4 6.4 12.8 6.4 19.2v307.2c0 6.4 0 12.8-6.4 19.2 0 6.4-6.4 6.4-12.8 12.8-6.4 0-12.8 6.4-19.2 6.4s-12.8 0-19.2-6.4l-128-64c-6.4-6.4-12.8-12.8-19.2-19.2s-6.4-19.2-6.4-25.6v-153.6c0-6.4 0-19.2 6.4-25.6s12.8-12.8 19.2-19.2z" />
<glyph unicode="&#xe919;" glyph-name="more-vert" d="M601.6 793.6c0-56.554-45.846-102.4-102.4-102.4s-102.4 45.846-102.4 102.4c0 56.554 45.846 102.4 102.4 102.4s102.4-45.846 102.4-102.4zM601.6 448c0-56.554-45.846-102.4-102.4-102.4s-102.4 45.846-102.4 102.4c0 56.554 45.846 102.4 102.4 102.4s102.4-45.846 102.4-102.4zM601.6 102.4c0-56.554-45.846-102.4-102.4-102.4s-102.4 45.846-102.4 102.4c0 56.554 45.846 102.4 102.4 102.4s102.4-45.846 102.4-102.4z" />
<glyph unicode="&#xe91a;" glyph-name="Download" horiz-adv-x="1408" d="M704 832c-140.127 0-259.375-90.107-302.646-215.729-7.879-22.874-27.983-39.35-51.96-42.583-124.995-16.851-221.394-124.064-221.394-253.688 0-141.382 114.615-256 256-256 35.347 0 64-28.653 64-64s-28.653-64-64-64c-212.077 0-384 171.923-384 384 0 181.209 125.466 333.023 294.287 373.45 69.613 156.956 226.792 266.55 409.713 266.55 227.654 0 415.642-169.801 444.237-389.661 147.936-28.178 259.763-158.199 259.763-314.339 0-176.73-143.27-320-320-320-35.347 0-64 28.653-64 64s28.653 64 64 64c106.042 0 192 85.958 192 192 0 106.038-85.958 192-192 192-35.347 0-64 28.654-64 64 0 176.731-143.27 320-320 320zM704 448c-35.347 0-64-28.654-64-64v-384c0-35.347 28.653-64 64-64s64 28.653 64 64v384c0 35.346-28.653 64-64 64zM530.745 173.254c-24.993-24.992-24.993-65.517 0-90.509l128.001-128c24.992-24.992 65.517-24.992 90.509 0s24.992 65.517 0 90.509l-127.999 128c-24.994 24.992-65.516 24.992-90.51 0zM658.746-45.254c24.992-24.992 65.517-24.992 90.509 0l128 128c24.992 24.992 24.992 65.517 0 90.509s-65.517 24.992-90.509 0l-128-128c-24.994-24.992-24.994-65.517 0-90.509z" />
<glyph unicode="&#xe967;" glyph-name="undo2" d="M761.862-64c113.726 206.032 132.888 520.306-313.862 509.824v-253.824l-384 384 384 384v-248.372c534.962 13.942 594.57-472.214 313.862-775.628z" />
<glyph unicode="&#xe968;" glyph-name="redo2" d="M576 711.628v248.372l384-384-384-384v253.824c-446.75 10.482-427.588-303.792-313.86-509.824-280.712 303.414-221.1 789.57 313.86 775.628z" />
<glyph unicode="&#xe9e1;" glyph-name="smile" d="M512-64c282.77 0 512 229.23 512 512s-229.23 512-512 512-512-229.23-512-512 229.23-512 512-512zM512 864c229.75 0 416-186.25 416-416s-186.25-416-416-416-416 186.25-416 416 186.25 416 416 416zM256 640c0 35.346 28.654 64 64 64s64-28.654 64-64c0-35.346-28.654-64-64-64s-64 28.654-64 64zM640 640c0 35.346 28.654 64 64 64s64-28.654 64-64c0-35.346-28.654-64-64-64s-64 28.654-64 64zM704.098 332.74l82.328-49.396c-55.962-93.070-157.916-155.344-274.426-155.344s-218.464 62.274-274.426 155.344l82.328 49.396c39.174-65.148 110.542-108.74 192.098-108.74s152.924 43.592 192.098 108.74z" />
</font>
</defs>
</svg>
