<svg width="89" height="27" viewBox="0 0 89 27" fill="none" xmlns="http://www.w3.org/2000/svg">
<path d="M1 5L0.999999 22" stroke="black" stroke-linecap="round"/>
<path d="M4 7L4 20" stroke="black" stroke-linecap="round"/>
<path d="M19 7L19 20" stroke="black" stroke-linecap="round"/>
<path d="M82 7L82 20" stroke="black" stroke-linecap="round"/>
<path d="M28 1L28 26" stroke="black" stroke-linecap="round"/>
<path d="M37 1L37 26" stroke="black" stroke-linecap="round"/>
<path d="M46 5L46 22" stroke="black" stroke-linecap="round"/>
<path d="M55 7L55 20" stroke="black" stroke-linecap="round"/>
<path d="M64 9L64 18" stroke="black" stroke-linecap="round"/>
<path d="M7 9L7 18" stroke="black" stroke-linecap="round"/>
<path d="M22 9L22 18" stroke="black" stroke-linecap="round"/>
<path d="M85 9L85 18" stroke="black" stroke-linecap="round"/>
<path d="M31 5L31 22" stroke="black" stroke-linecap="round"/>
<path d="M40 5L40 22" stroke="black" stroke-linecap="round"/>
<path d="M49 7L49 20" stroke="black" stroke-linecap="round"/>
<path d="M58 9L58 18" stroke="black" stroke-linecap="round"/>
<path d="M67 11L67 16" stroke="black" stroke-linecap="round"/>
<path d="M10 7L10 20" stroke="black" stroke-linecap="round"/>
<path d="M73 7L73 20" stroke="black" stroke-linecap="round"/>
<path d="M25 7L25 20" stroke="black" stroke-linecap="round"/>
<path d="M88 11L88 16" stroke="black" stroke-linecap="round"/>
<path d="M34 1L34 26" stroke="black" stroke-linecap="round"/>
<path d="M43 1L43 26" stroke="black" stroke-linecap="round"/>
<path d="M52 5L52 22" stroke="black" stroke-linecap="round"/>
<path d="M61 7L61 20" stroke="black" stroke-linecap="round"/>
<path d="M70 11L70 16" stroke="black" stroke-linecap="round"/>
<path d="M13 3L13 24" stroke="black" stroke-linecap="round"/>
<path d="M76 3L76 24" stroke="black" stroke-linecap="round"/>
<path d="M16 9L16 18" stroke="black" stroke-linecap="round"/>
<path d="M79 9L79 18" stroke="black" stroke-linecap="round"/>
</svg>
